<?xml version="1.0" encoding="utf-8"?>
<!-- Generator: Adobe Illustrator 21.0.2, SVG Export Plug-In . SVG Version: 6.00 Build 0)  -->
<svg version="1.1" id="Layer_1" xmlns="http://www.w3.org/2000/svg" xmlns:xlink="http://www.w3.org/1999/xlink" x="0px" y="0px"
	 viewBox="0 0 356 48.6" style="enable-background:new 0 0 356 48.6;" xml:space="preserve">
<style type="text/css">
	.st0{fill:#F4F3F3;}
	.st1{fill:#FFFFFF;}
</style>
<title>Asset 1</title>
<g>
	<path class="st0" d="M6.4,13.9c0,4.1,1.8,4.8,7.1,6.3c5,1.4,8.6,3.4,8.6,8.9c0,6.3-3.9,8.7-10.9,8.7c-3.3,0-5.5-0.2-7.9-0.7
		l0.3-2.8c2.4,0.4,5.2,0.6,7.4,0.6c4.4,0,7.5-1,7.5-5.6c0-3.8-2.6-4.9-6.8-6.1C6.2,21.4,3,20,3,14.5c0-6.2,3.8-8.2,10.5-8.2
		c2.8,0,5.6,0.3,7.8,0.7L21,9.7c-1.9-0.3-4.1-0.5-6.1-0.5C10.4,9.2,6.4,9.8,6.4,13.9z"/>
	<path class="st0" d="M27.2,14.4c2.7-0.4,5.4-0.8,8.7-0.8c5,0,9,1.3,9,7.1v11.1c0,1.4-0.1,2.7-0.1,4c-2.8,1.4-6.1,1.9-9.8,1.9
		c-6.3,0-9.2-1.9-9.2-7c0-4.1,1.7-6.7,5.9-7.3c2.9-0.4,6.5-0.6,10-0.7v-1c0-3.8-1.3-5.4-6.4-5.4c-2.7,0-5.3,0.3-7.9,0.7L27.2,14.4z
		 M35.3,35.1c2,0,4.3-0.3,6.4-1.1c0.1-1.1,0.1-2.6,0.1-3.7v-5.2c-2.7,0.1-6.5,0.1-8.9,0.6c-2.7,0.5-3.9,1.6-3.9,4.9
		C29,34.2,30.9,35.1,35.3,35.1z"/>
	<path class="st0" d="M55.9,13.9h5.3v2.5h-5.3v21h-3.2v-21h-4.2v-2.5h4.2v-2.5c0-4.5,2.3-6.9,6.8-6.9c0.6,0,1.4,0.1,2,0.2L61.2,7
		h-1.1c-2.6,0-4.2,1.2-4.2,4.2V13.9z"/>
	<path class="st0" d="M63.7,25.6c0-8.5,2.6-12.1,10.3-12.1c8,0,10.1,4.2,10.1,10.6c0,0.7,0,1.5-0.1,2.2c-2.7,0.4-8.3,1-11.5,1.1
		l-5.6,0.2c0.4,4.8,1.8,7.3,7.8,7.3c3.1,0,5.9-0.3,8.3-0.7l0.3,2.6c-2.7,0.4-5.4,0.8-9.8,0.8C65.7,37.7,63.7,32.6,63.7,25.6z M73,25
		c2.1-0.1,5.6-0.4,7.8-0.6c0-0.5,0.1-1.2,0.1-1.6c0-4-1.7-6.5-6.9-6.5c-5.9,0-7.2,3-7.2,9.1L73,25z"/>
	<path class="st0" d="M94.2,7.2v6.6h5.2v2.5h-5.2v14.7c0,3.4,1.1,4,4,4c0.4,0,0.9,0,1.3-0.1l0.3,2.4c-0.8,0.1-1.8,0.2-2.5,0.2
		c-4.3,0-6.2-1.9-6.2-6.2V16.4h-4.3v-2.5H91V7.7L94.2,7.2z"/>
	<path class="st0" d="M119.3,13.9h3.2L111.7,46h-3.2l3.6-10.3l-9.5-21.9h3.4l7.5,17.7L119.3,13.9z"/>
	<path class="st1" d="M139.4,28.8c0-3.4-2.8-4.1-5.6-4.9c-5.5-1.7-8.7-3.2-8.7-9c0-6.5,3.9-8.6,10.8-8.6c3.1,0,6.3,0.4,8.5,0.9
		l-0.5,4.1c-2-0.3-4.3-0.6-6.6-0.6c-2.6,0-6.9,0.1-6.9,3.6c0,3.6,2.5,4.1,6.2,5.1c5.6,1.5,8.4,3.6,8.4,9.3c0,6.6-4.1,9-11.3,9
		c-3.3,0-6.1-0.4-8.6-0.9l0.5-4.2c2.3,0.3,5.6,0.6,7.9,0.6C137.1,33.2,139.4,32.5,139.4,28.8z"/>
	<path class="st1" d="M163.8,13.9h5v17.4c0,1.5-0.1,2.9-0.2,4.3c-2.7,1.3-6.1,2.1-10.6,2.1c-8.2,0-9.1-3.9-9.1-8.7V13.9h5v14.5
		c0,3.7,0.6,5.3,5.4,5.3c1.5,0,3.2-0.3,4.2-0.8c0.1-1,0.1-2.1,0.1-3.2V13.9z"/>
	<path class="st1" d="M179,37.4h-5V19.9c0-1.5,0.1-2.9,0.2-4.3c2.6-1.5,6.2-2.1,9.2-2.1c0.8,0,1.5,0,2.2,0.1l-0.4,4
		c-0.5-0.1-1.1-0.1-1.8-0.1c-1.5,0-3.3,0.3-4.3,0.8c-0.1,1-0.1,2.1-0.1,3.2V37.4z"/>
	<path class="st1" d="M199.3,32.6l6.2-18.8h5.1l-7.4,20.6c-0.8,2.2-2.1,3.2-4.1,3.2s-3.2-1-4-3.2l-7.3-20.6h5.3L199.3,32.6z"/>
	<path class="st1" d="M217.3,28.1c0.3,4.5,2.6,5.6,6.3,5.6c3.1,0,6-0.3,8.4-0.6l0.4,3.7c-2.5,0.4-5.6,0.9-10.1,0.9
		c-7.9,0-10-5.1-10-12.1c0-8.5,2.6-12.1,10.5-12.1c8.5,0,10.3,4.5,10.3,11.5c0,0.6,0,1.1-0.1,1.7c-2.7,0.5-8.3,1-11.5,1.2
		L217.3,28.1z M221.9,24.5c1.7-0.1,4.4-0.3,6.1-0.5c0-0.3,0.1-0.8,0.1-1.1c0-3.6-1.3-5.5-5.2-5.5c-5,0-5.6,3.1-5.6,7.4L221.9,24.5z"
		/>
	<path class="st1" d="M239.9,10.6c-2.4,0-3-0.8-3-3c0-2.3,0.7-3,3-3c2.3,0,3,0.8,3,3C242.9,9.8,242.3,10.6,239.9,10.6z M237.4,37.4
		V13.9h5v23.5H237.4z"/>
	<path class="st1" d="M247.2,4.8h5v26.3c0,2.2,0.5,3.7,1.7,5.3l-4.4,2.1c-1.5-1.8-2.4-3.9-2.4-7.1V4.8z"/>
	<path class="st1" d="M257.1,4.8h5v26.3c0,2.2,0.5,3.7,1.7,5.3l-4.4,2.1c-1.5-1.8-2.4-3.9-2.4-7.1V4.8z"/>
	<path class="st1" d="M266,30.4c0-4.1,1.8-6.7,6.3-7.4c2.6-0.4,5.4-0.5,8.3-0.6c0-3.3-1.4-4.9-5-4.9c-2.8,0-5.8,0.3-8.2,0.6
		l-0.4-3.7c2.5-0.4,5.6-0.9,9.1-0.9c5.2,0,9.4,1.4,9.4,7.4v10.4c0,1.5-0.1,2.9-0.2,4.3c-2.6,1.5-6.1,2.1-10.5,2.1
		C268.5,37.7,266,35.2,266,30.4z M280.7,25.7c-2.1,0.1-4.5,0.1-6.4,0.6c-2.4,0.6-3.3,1.3-3.3,4.1c0,2.9,1.6,3.7,4.6,3.7
		c1.5,0,3.4-0.1,4.9-0.8c0.1-1,0.1-2.1,0.1-3.2V25.7z"/>
	<path class="st1" d="M310.6,37.4h-5V22.8c0-3.7-0.7-5.3-5.5-5.3c-1.5,0-3.3,0.3-4.3,0.8c-0.1,1-0.1,2.1-0.1,3.2v15.9h-5V19.9
		c0-1.5,0.1-2.9,0.2-4.3c2.7-1.3,6.2-2.1,10.6-2.1c8.3,0,9.1,3.9,9.1,8.8V37.4z"/>
	<path class="st1" d="M330.9,18.1c-1.3-0.2-2.7-0.5-4.1-0.5c-6.2,0-6.8,1.7-6.8,7.8c0,5.8,0.3,8.2,6.8,8.2c1.4,0,2.7-0.3,4-0.5
		l0.4,3.8c-2,0.5-4.4,0.8-7.3,0.8c-7.8,0-9.1-5.9-9.1-12.3c0-7.7,1.8-11.8,10.4-11.8c2.5,0,4.4,0.4,6,0.8L330.9,18.1z"/>
	<path class="st1" d="M339.1,28.1c0.3,4.5,2.6,5.6,6.3,5.6c3.1,0,6-0.3,8.4-0.6l0.4,3.7c-2.5,0.4-5.6,0.9-10.1,0.9
		c-7.9,0-10-5.1-10-12.1c0-8.5,2.6-12.1,10.5-12.1c8.5,0,10.3,4.5,10.3,11.5c0,0.6,0,1.1-0.1,1.7c-2.7,0.5-8.3,1-11.5,1.2
		L339.1,28.1z M343.7,24.5c1.7-0.1,4.4-0.3,6.1-0.5c0-0.3,0.1-0.8,0.1-1.1c0-3.6-1.3-5.5-5.2-5.5c-5,0-5.6,3.1-5.6,7.4L343.7,24.5z"
		/>
</g>
</svg>
